<?xml version="1.0" encoding="utf-8"?>
<!-- Generator: Adobe Illustrator 24.1.2, SVG Export Plug-In . SVG Version: 6.00 Build 0)  -->
<svg version="1.1" id="Layer_1" xmlns="http://www.w3.org/2000/svg" xmlns:xlink="http://www.w3.org/1999/xlink" x="0px" y="0px"
	 viewBox="0 0 1366 768" style="enable-background:new 0 0 1366 768;" xml:space="preserve">
<style type="text/css">
	.st0{fill:#FFCC66;}
	.st1{fill:none;stroke:#000000;stroke-miterlimit:10;}
	.st2{fill:#FFCC66;stroke:#000000;stroke-miterlimit:10;}
</style>
<g id="XMLID_1_">
	<g>
		<path class="st0" d="M732.66,350.14l0.72,6.3l-3.6,3.42l-3.42,1.62l-37.44,161.28c0,0,2.16,1.08-1.88,1.08c-4.04,0-4.04,0-4.04,0
			s-32.48-123.36-35.84-156.96l-8.16-5.76l3.36-4.8l-3.36-5.28l3.84-2.4l0.96-9.6l-2.4-5.76l5.28-6.24l6.72-3.84l1.44-4.32
			l-4.8-6.24l0.48-5.76l10.48-8.16v-7.2c0,0-3.76-16.8,11.12-23.04c0,0-8-12.96,10.88-23.52c0,0,9.28-3.36,10.72,2.4
			c0,0-9.92,1.92-10.72,10.08c0,0,25.18,4.5,21.76,9l0.32,5.04c0,0,10.04,5.4,0,13.86c0,0,6.34,0.9,7.06,5.76
			c0,0,12.6,5.76,3.24,13.68v6.48l3.46,1.08c0,0,1.76,1.26,3.2,5.76c0,0,11.7,4.5,3.24,10.8c0,0-1.62,6.84-0.9,8.28l3.24,3.06
			C727.62,340.24,740.22,341.5,732.66,350.14z"/>
	</g>
	<g>
		<path class="st1" d="M683,523.84c0,0-32.48-123.36-35.84-156.96l-8.16-5.76l3.36-4.8l-3.36-5.28l3.84-2.4l0.96-9.6l-2.4-5.76
			l5.28-6.24l6.72-3.84l1.44-4.32l-4.8-6.24l0.48-5.76l10.48-8.16v-7.2c0,0-3.76-16.8,11.12-23.04c0,0-8-12.96,10.88-23.52
			c0,0,9.28-3.36,10.72,2.4c0,0-9.92,1.92-10.72,10.08c0,0,25.18,4.5,21.76,9l0.32,5.04c0,0,10.04,5.4,0,13.86
			c0,0,6.34,0.9,7.06,5.76c0,0,12.6,5.76,3.24,13.68v6.48l3.46,1.08c0,0,1.76,1.26,3.2,5.76c0,0,11.7,4.5,3.24,10.8
			c0,0-1.62,6.84-0.9,8.28l3.24,3.06c0,0,12.6,1.26,5.04,9.9l0.72,6.3l-3.6,3.42l-3.42,1.62l-37.44,161.28c0,0,2.16,1.08-1.88,1.08
			C683,523.84,683,523.84,683,523.84z"/>
	</g>
</g>
<polyline class="st2" points="660.84,366.16 725.13,366.79 647.7,366.16 "/>
<polyline class="st2" points="656.16,349.78 672.36,349.78 681.9,338.44 708.54,335.74 716.28,325.3 "/>
<polyline class="st2" points="658.14,331.42 681.72,324.22 684.6,311.62 710.52,308.92 "/>
<polyline class="st2" points="661.2,308.92 672.54,298.3 686.22,301.54 700.8,290.74 "/>
<polyline class="st2" points="670.02,284.98 683,280.84 688.02,283.9 695.04,274.18 702.6,274.18 "/>
</svg>
